<?xml version="1.0" encoding="UTF-8" standalone="no"?>
<!-- Created with Inkscape (http://www.inkscape.org/) -->

<svg
   xmlns:dc="http://purl.org/dc/elements/1.1/"
   xmlns:cc="http://creativecommons.org/ns#"
   xmlns:rdf="http://www.w3.org/1999/02/22-rdf-syntax-ns#"
   xmlns:svg="http://www.w3.org/2000/svg"
   xmlns="http://www.w3.org/2000/svg"
   xmlns:sodipodi="http://sodipodi.sourceforge.net/DTD/sodipodi-0.dtd"
   xmlns:inkscape="http://www.inkscape.org/namespaces/inkscape"
   width="32"
   height="32"
   viewBox="0 0 31.999999 31.999998"
   id="svg3336"
   version="1.1"
   inkscape:version="0.91 r13725"
   sodipodi:docname="faxapp.svg">
  <defs
     id="defs3338" />
  <sodipodi:namedview
     id="base"
     pagecolor="#ffffff"
     bordercolor="#666666"
     borderopacity="1.0"
     inkscape:pageopacity="0.0"
     inkscape:pageshadow="2"
     inkscape:zoom="22.4"
     inkscape:cx="32.142857"
     inkscape:cy="16.113172"
     inkscape:document-units="px"
     inkscape:current-layer="layer1"
     showgrid="false"
     units="px"
     inkscape:window-width="1920"
     inkscape:window-height="1058"
     inkscape:window-x="0"
     inkscape:window-y="0"
     inkscape:window-maximized="1" />
  <metadata
     id="metadata3341">
    <rdf:RDF>
      <cc:Work
         rdf:about="">
        <dc:format>image/svg+xml</dc:format>
        <dc:type
           rdf:resource="http://purl.org/dc/dcmitype/StillImage" />
        <dc:title></dc:title>
      </cc:Work>
    </rdf:RDF>
  </metadata>
  <g
     inkscape:label="Layer 1"
     inkscape:groupmode="layer"
     id="layer1"
     transform="translate(0,-1020.3622)">
    <g
       id="g3522"
       transform="matrix(1.9999998,0,0,2.1333331,0,1019.2955)">
      <g
         id="g3476">
        <g
           id="g3478">
          <path
             id="path3480"
             d="m 4,12.5 0,3 8,0 0,-3 0,-2 -8,0 0,2 z m 1,-1 6,0 0,1 -6,0 0,-1 z m 0,2 6,0 0,1 -6,0 0,-1 z"
             style="fill:#030104"
             inkscape:connector-curvature="0" />
          <polygon
             id="polygon3482"
             points="12,0.5 4,0.5 4,3.5 4,5.5 12,5.5 12,3.5 "
             style="fill:#030104" />
          <path
             id="path3484"
             d="m 14,3.5 -1,0 0,2 0,1 -10,0 0,-1 0,-2 -1,0 c -1,0 -2,1 -2,2 l 0,5 c 0,1 1,2 2,2 l 1,0 0,-2 0,-1 10,0 0,1 0,2 1,0 c 1,0 2,-1 2,-2 l 0,-5 c 0,-1 -1,-2 -2,-2 z"
             style="fill:#030104"
             inkscape:connector-curvature="0" />
        </g>
      </g>
      <g
         id="g3486" />
      <g
         id="g3488" />
      <g
         id="g3490" />
      <g
         id="g3492" />
      <g
         id="g3494" />
      <g
         id="g3496" />
      <g
         id="g3498" />
      <g
         id="g3500" />
      <g
         id="g3502" />
      <g
         id="g3504" />
      <g
         id="g3506" />
      <g
         id="g3508" />
      <g
         id="g3510" />
      <g
         id="g3512" />
      <g
         id="g3514" />
    </g>
  </g>
</svg>
